<svg width="200" height="100" viewBox="0 0 200 100" fill="none" xmlns="http://www.w3.org/2000/svg">
<path d="M15.158 22.246H43.566C51.904 22.316 57.946 24.72 61.692 29.454C65.438 34.188 66.674 40.654 65.402 48.852C64.908 52.598 63.812 56.272 62.116 59.876C60.49 63.48 58.23 66.73 55.332 69.628C51.798 73.302 48.018 75.634 43.99 76.624C39.962 77.614 35.792 78.108 31.482 78.108H18.762L14.734 98.248H0L15.158 22.246ZM27.56 34.33L21.2 66.13C21.624 66.2 22.048 66.236 22.472 66.236C22.966 66.236 23.462 66.236 23.956 66.236C30.74 66.306 36.394 65.636 40.916 64.222C45.438 62.738 48.478 57.58 50.032 48.746C51.304 41.326 50.032 37.05 46.216 35.92C42.47 34.79 37.772 34.26 32.118 34.33C31.27 34.4 30.458 34.436 29.68 34.436C28.974 34.436 28.232 34.436 27.454 34.436L27.56 34.33Z" fill="black"/>
<path d="M82.1858 2H96.8138L92.6798 22.246H105.824C113.032 22.388 118.402 23.872 121.936 26.698C125.54 29.524 126.6 34.896 125.116 42.81L118.014 78.108H103.174L109.958 44.4C110.664 40.866 110.452 38.358 109.322 36.874C108.192 35.39 105.754 34.648 102.008 34.648L90.2418 34.542L81.5498 78.108H66.9218L82.1858 2Z" fill="black"/>
<path d="M140.824 22.246H169.232C177.57 22.316 183.612 24.72 187.358 29.454C191.104 34.188 192.34 40.654 191.068 48.852C190.574 52.598 189.478 56.272 187.782 59.876C186.156 63.48 183.896 66.73 180.998 69.628C177.464 73.302 173.684 75.634 169.656 76.624C165.628 77.614 161.458 78.108 157.148 78.108H144.428L140.4 98.248H125.666L140.824 22.246ZM153.226 34.33L146.866 66.13C147.29 66.2 147.714 66.236 148.138 66.236C148.632 66.236 149.128 66.236 149.622 66.236C156.406 66.306 162.06 65.636 166.582 64.222C171.104 62.738 174.144 57.58 175.698 48.746C176.97 41.326 175.698 37.05 171.882 35.92C168.136 34.79 163.438 34.26 157.784 34.33C156.936 34.4 156.124 34.436 155.346 34.436C154.64 34.436 153.898 34.436 153.12 34.436L153.226 34.33Z" fill="black"/>
</svg>
