<svg width="48" height="48" viewBox="0 0 48 48" fill="none" xmlns="http://www.w3.org/2000/svg">
<g clip-path="url(#clip0_809_647)">
<path d="M23.8139 9.33507e-05C21.9134 0.00647265 20.5959 0.181265 19.0033 0.468334C14.3003 1.32316 13.4435 3.11829 13.4435 6.42659V11.4828H24.4434V14.0345H13.0256H7.70898C4.48725 14.0345 1.66763 15.6192 0.774205 19.4174C-0.235334 23.777 -0.280555 26.5073 0.774205 31.0596C1.57475 34.4547 3.33838 37 6.56133 37H11.0004V30.488C11.0004 26.7038 14.2832 22.9656 18.0451 22.9656H26.889C29.9726 22.9656 33 20.5899 33 17.3811V6.42659C33 3.31477 30.8501 0.987608 27.8448 0.465782C27.9193 0.458126 25.6986 -0.0075618 23.8139 9.33507e-05ZM17.7225 5.10353C18.7259 5.10353 19.5558 5.96728 19.5558 7.01987C19.5558 8.08266 18.7259 8.93111 17.7225 8.93111C16.6995 8.93111 15.8892 8.08393 15.8892 7.01987C15.8892 5.97111 16.6995 5.10353 17.7225 5.10353Z" fill="#0277BD"/>
<path d="M22.7424 47.9999C24.7581 47.9935 26.1554 47.8187 27.8444 47.5317C32.8323 46.6768 33.7409 44.8817 33.7409 41.5734V36.5172H22.0749V33.9655H34.1855H39.8241C43.241 33.9655 46.2314 32.3808 47.1789 28.5826C48.2496 24.223 48.2975 21.4927 47.1789 16.9404C46.3286 13.5453 44.4581 11 41.04 11H36.3321V17.512C36.3321 21.2962 32.8504 25.0344 28.8606 25.0344H19.4811C16.2108 25.0344 13 27.4101 13 30.6189V41.5734C13 44.6852 15.2801 47.0124 18.4675 47.5342C18.3884 47.5419 20.7437 48.0076 22.7424 47.9999ZM29.2041 42.8965C28.1399 42.8965 27.2598 42.0327 27.2598 40.9801C27.2598 39.9173 28.1399 39.0689 29.2041 39.0689C30.2891 39.0689 31.1485 39.9161 31.1485 40.9801C31.1485 42.0289 30.2878 42.8965 29.2041 42.8965Z" fill="#FFC107"/>
</g>
<defs>
<clipPath id="clip0_809_647">
<rect width="48" height="48" fill="white"/>
</clipPath>
</defs>
</svg>
