<svg width="24" height="25" viewBox="0 0 24 25" fill="none" xmlns="http://www.w3.org/2000/svg">
<path opacity="0.2" d="M8.67187 11.7847C9.44364 13.3785 10.7324 14.6639 12.3281 15.4316C12.4458 15.4874 12.576 15.5115 12.7059 15.5016C12.8358 15.4918 12.9608 15.4482 13.0687 15.3754L15.4125 13.8097C15.516 13.7395 15.6357 13.6967 15.7603 13.6852C15.8849 13.6737 16.0104 13.694 16.125 13.7441L20.5125 15.6285C20.6625 15.6909 20.7877 15.8009 20.869 15.9415C20.9504 16.0821 20.9832 16.2455 20.9625 16.4066C20.8234 17.492 20.2937 18.4895 19.4723 19.2125C18.6509 19.9355 17.5943 20.3345 16.5 20.3347C13.1185 20.3347 9.87548 18.9914 7.48439 16.6004C5.0933 14.2093 3.75 10.9663 3.75 7.58475C3.75025 6.49049 4.1492 5.43382 4.87221 4.61246C5.59522 3.79109 6.59274 3.26131 7.67812 3.12225C7.83922 3.10155 8.00266 3.13439 8.14326 3.2157C8.28386 3.29702 8.39384 3.4223 8.45625 3.57225L10.3406 7.96912C10.3896 8.08195 10.4101 8.20509 10.4003 8.32771C10.3905 8.45033 10.3507 8.56865 10.2844 8.67225L8.71875 11.0535C8.64905 11.1612 8.60814 11.285 8.59993 11.413C8.59172 11.541 8.61649 11.669 8.67187 11.7847Z" fill="#F2146F"/>
<path d="M8.67187 11.7847C9.44364 13.3785 10.7324 14.6639 12.3281 15.4316C12.4458 15.4874 12.576 15.5115 12.7059 15.5016C12.8358 15.4918 12.9608 15.4482 13.0687 15.3754L15.4125 13.8097C15.516 13.7395 15.6357 13.6967 15.7603 13.6852C15.8849 13.6737 16.0104 13.694 16.125 13.7441L20.5125 15.6285C20.6625 15.6909 20.7877 15.8009 20.869 15.9415C20.9504 16.0821 20.9832 16.2455 20.9625 16.4066C20.8234 17.492 20.2937 18.4895 19.4723 19.2125C18.6509 19.9355 17.5943 20.3345 16.5 20.3347C13.1185 20.3347 9.87548 18.9914 7.48439 16.6004C5.0933 14.2093 3.75 10.9663 3.75 7.58475C3.75025 6.49049 4.1492 5.43382 4.87221 4.61246C5.59522 3.79109 6.59274 3.26131 7.67812 3.12225C7.83922 3.10155 8.00266 3.13439 8.14326 3.2157C8.28386 3.29702 8.39384 3.4223 8.45625 3.57225L10.3406 7.96912C10.3896 8.08195 10.4101 8.20509 10.4003 8.32771C10.3905 8.45033 10.3507 8.56865 10.2844 8.67225L8.71875 11.0535C8.64905 11.1612 8.60814 11.285 8.59993 11.413C8.59172 11.541 8.61649 11.669 8.67187 11.7847Z" stroke="#F2146F" stroke-width="1.5" stroke-linecap="round" stroke-linejoin="round"/>
<path d="M14.9438 3.83447C16.2159 4.17589 17.3759 4.8459 18.3072 5.77726C19.2386 6.70863 19.9086 7.86859 20.25 9.14072" stroke="#F2146F" stroke-width="1.5" stroke-linecap="round" stroke-linejoin="round"/>
<path d="M14.1656 6.73145C14.9307 6.93465 15.6285 7.33649 16.1883 7.89626C16.748 8.45603 17.1499 9.15383 17.3531 9.91895" stroke="#F2146F" stroke-width="1.5" stroke-linecap="round" stroke-linejoin="round"/>
</svg>
