<svg width="20" height="21" viewBox="0 0 20 21" fill="none" xmlns="http://www.w3.org/2000/svg">
<path opacity="0.2" d="M10 12.5845C12.7614 12.5845 15 10.3459 15 7.58447C15 4.82305 12.7614 2.58447 10 2.58447C7.23858 2.58447 5 4.82305 5 7.58447C5 10.3459 7.23858 12.5845 10 12.5845Z" fill="#7032D8"/>
<path d="M10 12.5845C12.7614 12.5845 15 10.3459 15 7.58447C15 4.82305 12.7614 2.58447 10 2.58447C7.23858 2.58447 5 4.82305 5 7.58447C5 10.3459 7.23858 12.5845 10 12.5845Z" stroke="#7032D8" stroke-width="0.740741" stroke-miterlimit="10"/>
<path d="M2.42188 16.9597C3.18979 15.6293 4.2944 14.5246 5.62465 13.7565C6.9549 12.9884 8.46392 12.584 10 12.584C11.5361 12.584 13.0451 12.9884 14.3753 13.7565C15.7056 14.5246 16.8102 15.6293 17.5781 16.9597" stroke="#7032D8" stroke-width="0.740741" stroke-linecap="round" stroke-linejoin="round"/>
</svg>
